<?xml version="1.0" encoding="iso-8859-1"?>
<!-- Generator: Adobe Illustrator 19.0.0, SVG Export Plug-In . SVG Version: 6.00 Build 0)  -->
<svg version="1.1" id="Layer_1" xmlns="http://www.w3.org/2000/svg" xmlns:xlink="http://www.w3.org/1999/xlink" x="0px" y="0px"
	 viewBox="0 0 512 512" style="enable-background:new 0 0 512 512;" xml:space="preserve">
<path style="fill:#ADD9FF;" d="M109.687,402.312C49.109,402.312,0,451.422,0,512h36.562h109.749l46.397-71.684
	C172.597,417.041,142.863,402.312,109.687,402.312z"/>
<path style="fill:#ED2F49;" d="M402.313,402.312L475.438,512H512C512,451.422,462.891,402.312,402.313,402.312z"/>
<path style="fill:#FF455E;" d="M402.313,402.312c-33.175,0-62.91,14.729-83.023,38.003L365.687,512h109.749
	C475.438,451.422,442.699,402.312,402.313,402.312z"/>
<path style="fill:#FE7074;" d="M235.295,0.767C233.074,0.272,230.77,0,228.399,0c-17.442,0-31.581,14.139-31.581,31.581
	c0,7.15,2.377,13.743,6.383,19.036L256,120.404L235.295,0.767z"/>
<path style="fill:#ED2F49;" d="M283.601,0c-2.37,0-4.674,0.272-6.895,0.767L256,120.404l52.799-69.787
	c4.006-5.293,6.383-11.886,6.383-19.036C315.182,14.139,301.043,0,283.601,0z"/>
<path style="fill:#FF455E;" d="M291.509,31.581c0-15.067-6.333-27.663-14.803-30.813c-8.903,1.986-16.39,7.724-20.705,15.477
	c-4.315-7.753-11.802-13.491-20.705-15.477c-8.47,3.152-14.803,15.746-14.803,30.813c0,7.15,1.427,13.743,3.829,19.036L256,120.404
	l31.68-69.787C290.082,45.324,291.509,38.731,291.509,31.581z"/>
<path style="fill:#A0613C;" d="M182.844,120.994V247.56c34.95,0,63.283-28.332,63.283-63.283S217.794,120.994,182.844,120.994z"/>
<path style="fill:#BF7447;" d="M222.496,184.277c0-34.951-17.753-63.283-39.652-63.283c-34.95,0-63.283,28.333-63.283,63.283
	s28.333,63.283,63.283,63.283C204.744,247.56,222.496,219.228,222.496,184.277z"/>
<path style="fill:#FEBB8E;" d="M256,250.427v126.566c34.95,0,63.283-28.332,63.283-63.283S290.95,250.427,256,250.427z"/>
<path style="fill:#FCD5A2;" d="M295.652,313.711c0-34.951-17.753-63.283-39.652-63.283c-34.95,0-63.283,28.333-63.283,63.283
	S221.05,376.994,256,376.994C277.899,376.993,295.652,348.661,295.652,313.711z"/>
<path style="fill:#FEAB75;" d="M109.687,250.427v126.566c34.95,0,63.283-28.332,63.283-63.283S144.638,250.427,109.687,250.427z"/>
<path style="fill:#FF9B5F;" d="M149.34,313.711c0-34.951-17.753-63.283-39.652-63.283c-34.95,0-63.283,28.333-63.283,63.283
	s28.333,63.283,63.283,63.283C131.587,376.993,149.34,348.661,149.34,313.711z"/>
<path style="fill:#804E30;" d="M402.313,250.427v126.566c34.95,0,63.283-28.332,63.283-63.283S437.263,250.427,402.313,250.427z"/>
<path style="fill:#A0613C;" d="M441.965,313.711c0-34.951-17.753-63.283-39.652-63.283c-34.95,0-63.283,28.333-63.283,63.283
	s28.333,63.283,63.283,63.283C424.212,376.993,441.965,348.661,441.965,313.711z"/>
<path style="fill:#FFBB02;" d="M256,402.312L329.125,512h36.562C365.687,451.422,316.579,402.312,256,402.312z"/>
<path style="fill:#FFCC3D;" d="M256,402.312c-60.579,0-109.687,49.109-109.687,109.688h182.812
	C329.125,451.422,296.386,402.312,256,402.312z"/>
<path style="fill:#FEAB75;" d="M329.156,120.994V247.56c34.95,0,63.283-28.332,63.283-63.283S364.106,120.994,329.156,120.994z"/>
<path style="fill:#FEBB8E;" d="M368.809,184.277c0-34.951-17.753-63.283-39.652-63.283c-34.95,0-63.283,28.333-63.283,63.283
	s28.332,63.283,63.283,63.283C351.055,247.56,368.809,219.228,368.809,184.277z"/>
<path style="fill:#804E30;" d="M182.78,213.802c-9.683,0-18.763-4.767-24.289-12.752c-2.652-3.833-1.696-9.09,2.136-11.742
	c3.835-2.653,9.091-1.696,11.743,2.137c2.373,3.43,6.266,5.478,10.41,5.478c4.2,0,8.12-2.09,10.488-5.591
	c2.611-3.861,7.858-4.875,11.717-2.265c3.862,2.611,4.876,7.857,2.265,11.719C201.739,208.937,192.591,213.802,182.78,213.802z"/>
<path style="fill:#FE7074;" d="M255.935,343.236c-9.683,0-18.763-4.767-24.289-12.752c-2.652-3.833-1.696-9.09,2.136-11.742
	c3.835-2.655,9.091-1.696,11.743,2.137c2.373,3.43,6.266,5.478,10.41,5.478c4.2,0,8.12-2.09,10.488-5.591
	c2.611-3.86,7.858-4.876,11.717-2.265c3.862,2.611,4.876,7.857,2.265,11.719C274.896,338.37,265.747,343.236,255.935,343.236z"/>
<path style="fill:#FF455E;" d="M109.688,343.236c-9.683,0-18.763-4.767-24.289-12.752c-2.652-3.833-1.696-9.09,2.136-11.742
	c3.836-2.655,9.091-1.696,11.743,2.137c2.373,3.43,6.266,5.478,10.41,5.478c4.2,0,8.12-2.09,10.488-5.591
	c2.611-3.86,7.858-4.876,11.717-2.265c3.862,2.611,4.876,7.857,2.265,11.719C128.648,338.37,119.5,343.236,109.688,343.236z"/>
<path style="fill:#DF8853;" d="M402.247,343.236c-9.683,0-18.763-4.767-24.289-12.752c-2.652-3.833-1.696-9.09,2.136-11.742
	c3.835-2.655,9.091-1.696,11.743,2.137c2.373,3.43,6.266,5.478,10.41,5.478c4.2,0,8.12-2.09,10.488-5.591
	c2.61-3.86,7.859-4.876,11.717-2.265c3.862,2.611,4.876,7.857,2.265,11.719C421.207,338.37,412.06,343.236,402.247,343.236z"/>
<path style="fill:#FF455E;" d="M329.091,213.802c-9.683,0-18.763-4.767-24.289-12.752c-2.652-3.833-1.696-9.09,2.136-11.742
	c3.835-2.653,9.09-1.696,11.743,2.137c2.373,3.43,6.266,5.478,10.41,5.478c4.2,0,8.12-2.09,10.488-5.591
	c2.611-3.861,7.858-4.875,11.717-2.265c3.862,2.611,4.876,7.857,2.265,11.719C348.052,208.937,338.904,213.802,329.091,213.802z"/>
<g>
</g>
<g>
</g>
<g>
</g>
<g>
</g>
<g>
</g>
<g>
</g>
<g>
</g>
<g>
</g>
<g>
</g>
<g>
</g>
<g>
</g>
<g>
</g>
<g>
</g>
<g>
</g>
<g>
</g>
</svg>
